<mxfile host="app.diagrams.net" modified="2022-09-26T11:11:33.017Z" agent="5.0 (Windows NT 10.0; Win64; x64) AppleWebKit/537.36 (KHTML, like Gecko) Chrome/105.0.0.0 Safari/537.36" etag="0G19oPnYSVi8jW6HIEtj" version="20.3.6" type="github">
  <diagram id="j3gpzI60XGMCLZwuPyCB" name="Page-1">
    <mxGraphModel dx="1738" dy="1133" grid="1" gridSize="10" guides="1" tooltips="1" connect="1" arrows="1" fold="1" page="1" pageScale="1" pageWidth="850" pageHeight="1100" math="0" shadow="0">
      <root>
        <mxCell id="0" />
        <mxCell id="1" parent="0" />
        <mxCell id="FKNpK47_2ygOlQ3YYDCS-1" value="" style="whiteSpace=wrap;html=1;aspect=fixed;" vertex="1" parent="1">
          <mxGeometry x="50" y="80" width="330" height="330" as="geometry" />
        </mxCell>
        <mxCell id="FKNpK47_2ygOlQ3YYDCS-2" value="Text field" style="rounded=1;whiteSpace=wrap;html=1;" vertex="1" parent="1">
          <mxGeometry x="82.5" y="140" width="227.5" height="40" as="geometry" />
        </mxCell>
        <mxCell id="FKNpK47_2ygOlQ3YYDCS-4" value="Multi-line field / radio button" style="rounded=1;whiteSpace=wrap;html=1;" vertex="1" parent="1">
          <mxGeometry x="82.5" y="280" width="227.5" height="40" as="geometry" />
        </mxCell>
        <mxCell id="FKNpK47_2ygOlQ3YYDCS-15" style="edgeStyle=orthogonalEdgeStyle;rounded=0;orthogonalLoop=1;jettySize=auto;html=1;entryX=1;entryY=0.5;entryDx=0;entryDy=0;" edge="1" parent="1" source="FKNpK47_2ygOlQ3YYDCS-5" target="FKNpK47_2ygOlQ3YYDCS-10">
          <mxGeometry relative="1" as="geometry" />
        </mxCell>
        <mxCell id="FKNpK47_2ygOlQ3YYDCS-5" value="Button" style="rounded=1;whiteSpace=wrap;html=1;" vertex="1" parent="1">
          <mxGeometry x="490" y="350" width="80" height="30" as="geometry" />
        </mxCell>
        <mxCell id="FKNpK47_2ygOlQ3YYDCS-6" value="Title" style="text;html=1;strokeColor=none;fillColor=none;align=center;verticalAlign=middle;whiteSpace=wrap;rounded=0;" vertex="1" parent="1">
          <mxGeometry x="166.25" y="90" width="60" height="30" as="geometry" />
        </mxCell>
        <mxCell id="FKNpK47_2ygOlQ3YYDCS-12" style="edgeStyle=orthogonalEdgeStyle;rounded=0;orthogonalLoop=1;jettySize=auto;html=1;entryX=1;entryY=0.5;entryDx=0;entryDy=0;" edge="1" parent="1" source="FKNpK47_2ygOlQ3YYDCS-8" target="FKNpK47_2ygOlQ3YYDCS-3">
          <mxGeometry relative="1" as="geometry" />
        </mxCell>
        <mxCell id="FKNpK47_2ygOlQ3YYDCS-23" style="edgeStyle=orthogonalEdgeStyle;rounded=0;orthogonalLoop=1;jettySize=auto;html=1;entryX=1;entryY=0.5;entryDx=0;entryDy=0;" edge="1" parent="1" source="FKNpK47_2ygOlQ3YYDCS-8" target="FKNpK47_2ygOlQ3YYDCS-2">
          <mxGeometry relative="1" as="geometry" />
        </mxCell>
        <mxCell id="FKNpK47_2ygOlQ3YYDCS-8" value="Text field" style="rounded=1;whiteSpace=wrap;html=1;" vertex="1" parent="1">
          <mxGeometry x="490" y="179" width="220" height="40" as="geometry" />
        </mxCell>
        <mxCell id="FKNpK47_2ygOlQ3YYDCS-14" style="edgeStyle=orthogonalEdgeStyle;rounded=0;orthogonalLoop=1;jettySize=auto;html=1;entryX=1;entryY=0.5;entryDx=0;entryDy=0;" edge="1" parent="1" source="FKNpK47_2ygOlQ3YYDCS-9" target="FKNpK47_2ygOlQ3YYDCS-4">
          <mxGeometry relative="1" as="geometry" />
        </mxCell>
        <mxCell id="FKNpK47_2ygOlQ3YYDCS-9" value="Multi-line field / radio button" style="rounded=1;whiteSpace=wrap;html=1;" vertex="1" parent="1">
          <mxGeometry x="490" y="280" width="220" height="40" as="geometry" />
        </mxCell>
        <mxCell id="FKNpK47_2ygOlQ3YYDCS-10" value="Button" style="rounded=1;whiteSpace=wrap;html=1;" vertex="1" parent="1">
          <mxGeometry x="280" y="350" width="80" height="30" as="geometry" />
        </mxCell>
        <mxCell id="FKNpK47_2ygOlQ3YYDCS-16" value="Reusable components" style="text;html=1;strokeColor=none;fillColor=none;align=center;verticalAlign=middle;whiteSpace=wrap;rounded=0;" vertex="1" parent="1">
          <mxGeometry x="560" y="120" width="60" height="30" as="geometry" />
        </mxCell>
        <mxCell id="FKNpK47_2ygOlQ3YYDCS-21" style="edgeStyle=orthogonalEdgeStyle;rounded=0;orthogonalLoop=1;jettySize=auto;html=1;entryX=0.5;entryY=1;entryDx=0;entryDy=0;" edge="1" parent="1" source="FKNpK47_2ygOlQ3YYDCS-18" target="FKNpK47_2ygOlQ3YYDCS-1">
          <mxGeometry relative="1" as="geometry" />
        </mxCell>
        <mxCell id="FKNpK47_2ygOlQ3YYDCS-18" value="" style="whiteSpace=wrap;html=1;aspect=fixed;" vertex="1" parent="1">
          <mxGeometry x="480" y="410" width="330" height="330" as="geometry" />
        </mxCell>
        <mxCell id="FKNpK47_2ygOlQ3YYDCS-19" value="Title" style="text;html=1;strokeColor=none;fillColor=none;align=center;verticalAlign=middle;whiteSpace=wrap;rounded=0;" vertex="1" parent="1">
          <mxGeometry x="610" y="420" width="60" height="30" as="geometry" />
        </mxCell>
        <mxCell id="FKNpK47_2ygOlQ3YYDCS-3" value="Text field" style="rounded=1;whiteSpace=wrap;html=1;" vertex="1" parent="1">
          <mxGeometry x="82.5" y="210" width="227.5" height="40" as="geometry" />
        </mxCell>
        <mxCell id="FKNpK47_2ygOlQ3YYDCS-22" value="" style="edgeStyle=orthogonalEdgeStyle;rounded=0;orthogonalLoop=1;jettySize=auto;html=1;endArrow=none;" edge="1" parent="1" source="FKNpK47_2ygOlQ3YYDCS-8" target="FKNpK47_2ygOlQ3YYDCS-3">
          <mxGeometry relative="1" as="geometry">
            <mxPoint x="570" y="219.9999999999999" as="sourcePoint" />
            <mxPoint x="196.25925925925912" y="179.9999999999999" as="targetPoint" />
          </mxGeometry>
        </mxCell>
      </root>
    </mxGraphModel>
  </diagram>
</mxfile>
